<?xml version="1.0" encoding="iso-8859-1"?>
<!-- Generator: Adobe Illustrator 19.0.0, SVG Export Plug-In . SVG Version: 6.00 Build 0)  -->
<svg xmlns="http://www.w3.org/2000/svg" xmlns:xlink="http://www.w3.org/1999/xlink" version="1.1" id="Capa_1" x="0px" y="0px" viewBox="0 0 512 512" style="enable-background:new 0 0 512 512;" xml:space="preserve" width="512" height="512">
<g>
	<path d="M107.383,159.502c4.142,0,7.5-3.357,7.5-7.5v-31.359c0-20.281,16.505-36.781,36.792-36.781h66.641V165.5h-49.382V124   c0-4.143-3.358-7.5-7.5-7.5s-7.5,3.357-7.5,7.5v86c0,4.143,3.358,7.5,7.5,7.5s7.5-3.357,7.5-7.5v-29.5h56.882   c4.142,0,7.5-3.357,7.5-7.5V83.861H335.5v33.319H269c-4.142,0-7.5,3.357-7.5,7.5V257c0,4.143,3.358,7.5,7.5,7.5s7.5-3.357,7.5-7.5   V132.181H343c4.142,0,7.5-3.357,7.5-7.5V83.861h9.825c20.287,0,36.792,16.5,36.792,36.781v12.663c0,4.143,3.358,7.5,7.5,7.5   s7.5-3.357,7.5-7.5v-12.663c0-28.553-23.234-51.781-51.792-51.781h-208.65c-28.558,0-51.792,23.229-51.792,51.781v31.359   C99.883,156.145,103.241,159.502,107.383,159.502z"/>
	<path d="M107.383,321.758c4.142,0,7.5-3.357,7.5-7.5V182c0-4.143-3.358-7.5-7.5-7.5s-7.5,3.357-7.5,7.5v132.258   C99.883,318.4,103.241,321.758,107.383,321.758z"/>
	<path d="M404.617,190.242c-4.142,0-7.5,3.357-7.5,7.5V219.5H357c-4.142,0-7.5,3.357-7.5,7.5v117.448H234   c-4.142,0-7.5,3.357-7.5,7.5s3.358,7.5,7.5,7.5h123c4.142,0,7.5-3.357,7.5-7.5V234.5h32.617v156.857   c0,20.281-16.505,36.781-36.792,36.781h-87.627V393c0-4.143-3.358-7.5-7.5-7.5h-71.265v-97c0-4.143-3.358-7.5-7.5-7.5   s-7.5,3.357-7.5,7.5V393c0,4.143,3.358,7.5,7.5,7.5h71.265v27.639H151.675c-20.287,0-36.792-16.5-36.792-36.781v-12.663   c0-4.143-3.358-7.5-7.5-7.5s-7.5,3.357-7.5,7.5v12.663c0,28.553,23.234,51.781,51.792,51.781h208.65   c28.558,0,51.792-23.229,51.792-51.781V197.742C412.117,193.6,408.759,190.242,404.617,190.242z"/>
	<path d="M31.826,312.122C14.277,312.122,0,326.399,0,343.948s14.277,31.826,31.826,31.826s31.826-14.277,31.826-31.826   S49.375,312.122,31.826,312.122z M31.826,360.774c-9.278,0-16.826-7.548-16.826-16.826s7.548-16.826,16.826-16.826   s16.826,7.548,16.826,16.826S41.104,360.774,31.826,360.774z"/>
	<path d="M495.833,163l13.97-13.97c2.929-2.93,2.929-7.678,0-10.607c-2.929-2.928-7.678-2.928-10.606,0l-13.97,13.971l-13.97-13.971   c-2.928-2.928-7.677-2.928-10.606,0c-2.929,2.93-2.929,7.678,0,10.607l13.97,13.97l-13.97,13.97c-2.929,2.93-2.929,7.678,0,10.607   c1.464,1.464,3.384,2.196,5.303,2.196s3.839-0.732,5.303-2.196l13.97-13.971l13.97,13.971c1.464,1.464,3.384,2.196,5.303,2.196   c1.919,0,3.839-0.732,5.303-2.196c2.929-2.93,2.929-7.678,0-10.607L495.833,163z"/>
	<path d="M426.692,158.025H310.64c-4.142,0-7.5,3.357-7.5,7.5V300.5H233.5v-56.851c0-4.143-3.358-7.5-7.5-7.5h-79.133   c-4.142,0-7.5,3.357-7.5,7.5v95.325H85.308c-4.142,0-7.5,3.357-7.5,7.5s3.358,7.5,7.5,7.5h61.559c4.142,0,7.5-3.357,7.5-7.5   v-95.325H218.5V308c0,4.143,3.358,7.5,7.5,7.5h84.64c4.142,0,7.5-3.357,7.5-7.5V173.025h108.552c4.142,0,7.5-3.357,7.5-7.5   S430.834,158.025,426.692,158.025z"/>
</g>















</svg>
