<svg height="511pt" viewBox="-42 0 511 511.99845" width="511pt" xmlns="http://www.w3.org/2000/svg"><path d="m299.164062 132.574219v-38.707031c-.015624-.988282-.203124-1.960938-.554687-2.886719-.101563-.261719-.238281-.492188-.355469-.742188-.160156-.398437-.34375-.785156-.554687-1.160156l-52.78125-77.847656c-4.761719-7.023438-12.699219-11.230469-21.1875-11.230469h-19.464844c-8.464844 0-16.382813 4.183594-21.152344 11.179688l-53.136719 77.882812c-.210937.359375-.394531.738281-.546874 1.125-.128907.273438-.28125.511719-.382813.792969-.347656.925781-.535156 1.902343-.546875 2.886719v38.699218l-107.914062 91.324219c-1.914063 1.621094-3.019532 4-3.019532 6.507813v51.203124c0 4.710938 3.820313 8.53125 8.53125 8.53125.648438 0 1.292969-.070312 1.921875-.210937l100.480469-23.195313v14.875c-9.425781 0-17.066406 7.640626-17.066406 17.066407v17.066406c0 9.425781 7.640625 17.066406 17.066406 17.066406h18.378906l13.195313 56.21875c1.113281 5.5 4.019531 10.476563 8.257812 14.15625l-38.535156 61.636719c-1.910156 3.050781-1.699219 6.972656.527344 9.800781 2.226562 2.828125 5.988281 3.957031 9.40625 2.816407l39.96875-13.328126v39.363282c0 3.453125 2.078125 6.5625 5.269531 7.882812 3.1875 1.320313 6.855469.59375 9.296875-1.847656l19.566406-19.566406 19.566407 19.566406c2.441406 2.441406 6.109374 3.167969 9.300781 1.847656 3.1875-1.320312 5.265625-4.429687 5.265625-7.882812v-39.363282l39.972656 13.328126c3.414062 1.140624 7.175781.011718 9.402344-2.816407 2.226562-2.828125 2.4375-6.75.527344-9.800781l-38.507813-61.613281c4.191406-3.601563 7.074219-8.492188 8.191406-13.910157l13.234375-56.488281h18.378906c9.425782 0 17.070313-7.640625 17.070313-17.066406v-17.066406c0-9.425781-7.644531-17.066407-17.070313-17.066407v-14.875l100.480469 23.195313c.632813.140625 1.277344.210937 1.921875.210937 4.710938 0 8.53125-3.820312 8.53125-8.53125v-51.203124c0-2.507813-1.105468-4.886719-3.019531-6.507813zm-85.332031 46.625c18.851563 0 34.132813 15.28125 34.132813 34.132812 0 18.851563-15.28125 34.132813-34.132813 34.132813-18.851562 0-34.132812-15.28125-34.132812-34.132813 0-18.851562 15.28125-34.132812 34.132812-34.132812zm5.460938-74.820313c-.359375-.261718-.738281-.496094-1.132813-.699218-.210937-.144532-.425781-.277344-.648437-.402344-.867188-.441406-1.808594-.730469-2.773438-.851563-.199219 0-.386719 0-.582031 0-.789062-.027343-1.578125.054688-2.347656.238281-.289063.078126-.5625.152344-.851563.257813-.289062.101563-.511719.117187-.75.230469-.550781.277344-1.070312.617187-1.546875 1.015625-.09375.066406-.203125.082031-.296875.160156-13.117187 10.921875-25.132812 15.171875-35.722656 12.679687-11.1875-3.878906-20.414063-11.976562-25.710937-22.570312l39.597656-58c6.03125 9.242188 16.34375 14.792969 27.378906 14.738281 11.039062-.054687 21.292969-5.707031 27.234375-15.011719l39.535156 58.308594c-5.292969 10.601563-14.523437 18.710938-25.722656 22.585938-10.535156 2.5-22.542969-1.757813-35.660156-12.679688zm-15.027344-87.3125h19.464844c2.476562.019532 4.820312 1.117188 6.417969 3.011719-4.085938 10.496094-8.328126 14.054687-16.316407 14.054687s-12.183593-3.464843-16.308593-13.652343c1.59375-2.125 4.085937-3.386719 6.742187-3.414063zm-169.632813 253.808594v-36.515625l93.867188-79.429687v94.242187zm236.183594 182.859375-28.6875-9.566406c-2.601562-.867188-5.460937-.429688-7.6875 1.175781-2.226562 1.605469-3.542968 4.179688-3.542968 6.921875v30.601563l-11.03125-11.035157c-3.332032-3.328125-8.734376-3.328125-12.066407 0l-11.035156 11.035157v-30.601563c0-2.742187-1.316406-5.316406-3.542969-6.921875-2.222656-1.605469-5.085937-2.042969-7.6875-1.175781l-28.6875 9.566406 27.621094-44.195313c.230469 0 .453125.0625.691406.0625h57.34375c.238282 0 .460938-.054687.691406-.0625zm-19.941406-68.027344c-.8125 3.976563-4.3125 6.832031-8.371094 6.828125h-57.34375c-4.160156-.042968-7.699218-3.039062-8.429687-7.136718l-12.324219-52.597657h98.851562zm48.289062-69.972656h-170.664062v-17.066406h170.664062zm-153.597656-34.132813v-161.160156c6.359375 6.382813 14.316406 10.941406 23.039063 13.199219 3.355469.800781 6.792969 1.207031 10.242187 1.203125 9.324219-.226562 18.4375-2.859375 26.453125-7.636719v35.695313c-26.246093 4.433594-44.714843 28.242187-42.488281 54.765625 2.226562 26.523437 24.402344 46.917969 51.019531 46.917969 26.617188 0 48.796875-20.394532 51.019531-46.917969 2.226563-26.523438-16.242187-50.332031-42.484374-54.765625v-35.644532c10.945312 6.792969 24.097656 9.082032 36.691406 6.382813 8.722656-2.257813 16.679687-6.816406 23.039062-13.199219v161.160156zm247.464844-10.726562-93.867188-21.703125v-94.242187l93.867188 79.429687zm0 0"/><path d="m341.832031 298.667969c-4.710937 0-8.53125 3.820312-8.53125 8.53125v145.066406c0 4.714844 3.820313 8.535156 8.53125 8.535156 4.714844 0 8.535157-3.820312 8.535157-8.535156v-145.066406c0-4.710938-3.820313-8.53125-8.535157-8.53125zm0 0"/><path d="m375.964844 298.667969c-4.710938 0-8.53125 3.820312-8.53125 8.53125v51.199219c0 4.714843 3.820312 8.535156 8.53125 8.535156 4.714844 0 8.535156-3.820313 8.535156-8.535156v-51.199219c0-4.710938-3.820312-8.53125-8.535156-8.53125zm0 0"/><path d="m299.164062 349.867188c-4.710937 0-8.53125 3.820312-8.53125 8.53125v51.203124c0 4.710938 3.820313 8.53125 8.53125 8.53125 4.714844 0 8.535157-3.820312 8.535157-8.53125v-51.203124c0-4.710938-3.820313-8.53125-8.535157-8.53125zm0 0"/><path d="m375.964844 384c-4.710938 0-8.53125 3.820312-8.53125 8.535156v17.066406c0 4.710938 3.820312 8.53125 8.53125 8.53125 4.714844 0 8.535156-3.820312 8.535156-8.53125v-17.066406c0-4.714844-3.820312-8.535156-8.535156-8.535156zm0 0"/><path d="m85.832031 298.667969c-4.710937 0-8.53125 3.820312-8.53125 8.53125v145.066406c0 4.714844 3.820313 8.535156 8.53125 8.535156 4.714844 0 8.535157-3.820312 8.535157-8.535156v-145.066406c0-4.710938-3.820313-8.53125-8.535157-8.53125zm0 0"/><path d="m51.699219 298.667969c-4.710938 0-8.535157 3.820312-8.535157 8.53125v51.199219c0 4.714843 3.824219 8.535156 8.535157 8.535156 4.710937 0 8.535156-3.820313 8.535156-8.535156v-51.199219c0-4.710938-3.824219-8.53125-8.535156-8.53125zm0 0"/><path d="m137.03125 409.601562v-51.203124c0-4.710938-3.820312-8.53125-8.53125-8.53125-4.714844 0-8.535156 3.820312-8.535156 8.53125v51.203124c0 4.710938 3.820312 8.53125 8.535156 8.53125 4.710938 0 8.53125-3.820312 8.53125-8.53125zm0 0"/><path d="m51.699219 384c-4.710938 0-8.535157 3.820312-8.535157 8.535156v17.066406c0 4.710938 3.824219 8.53125 8.535157 8.53125 4.710937 0 8.535156-3.820312 8.535156-8.53125v-17.066406c0-4.714844-3.824219-8.535156-8.535156-8.535156zm0 0"/><path d="m34.632812 51.199219c0 4.714843 3.820313 8.535156 8.53125 8.535156 4.714844 0 8.535157-3.820313 8.535157-8.535156v-17.066407c0-4.710937-3.820313-8.53125-8.535157-8.53125-4.710937 0-8.53125 3.820313-8.53125 8.53125zm0 0"/><path d="m60.234375 59.734375c-4.714844 0-8.535156 3.820313-8.535156 8.53125 0 4.714844 3.820312 8.535156 8.535156 8.535156h17.066406c4.710938 0 8.53125-3.820312 8.53125-8.535156 0-4.710937-3.820312-8.53125-8.53125-8.53125zm0 0"/><path d="m34.632812 102.398438c0 4.714843 3.820313 8.535156 8.53125 8.535156 4.714844 0 8.535157-3.820313 8.535157-8.535156v-17.066407c0-4.710937-3.820313-8.53125-8.535157-8.53125-4.710937 0-8.53125 3.820313-8.53125 8.53125zm0 0"/><path d="m34.632812 68.265625c0-4.710937-3.820312-8.53125-8.535156-8.53125h-17.066406c-4.710938 0-8.53125 3.820313-8.53125 8.53125 0 4.714844 3.820312 8.535156 8.53125 8.535156h17.066406c4.714844 0 8.535156-3.820312 8.535156-8.535156zm0 0"/><path d="m393.03125 34.132812c0-4.710937-3.820312-8.53125-8.53125-8.53125-4.714844 0-8.535156 3.820313-8.535156 8.53125v17.066407c0 4.714843 3.820312 8.535156 8.535156 8.535156 4.710938 0 8.53125-3.820313 8.53125-8.535156zm0 0"/><path d="m418.632812 59.734375h-17.066406c-4.714844 0-8.535156 3.820313-8.535156 8.53125 0 4.714844 3.820312 8.535156 8.535156 8.535156h17.066406c4.710938 0 8.53125-3.820312 8.53125-8.535156 0-4.710937-3.820312-8.53125-8.53125-8.53125zm0 0"/><path d="m384.5 110.933594c4.710938 0 8.53125-3.820313 8.53125-8.535156v-17.066407c0-4.710937-3.820312-8.53125-8.53125-8.53125-4.714844 0-8.535156 3.820313-8.535156 8.53125v17.066407c0 4.714843 3.820312 8.535156 8.535156 8.535156zm0 0"/><path d="m367.433594 59.734375h-17.066406c-4.714844 0-8.535157 3.820313-8.535157 8.53125 0 4.714844 3.820313 8.535156 8.535157 8.535156h17.066406c4.710937 0 8.53125-3.820312 8.53125-8.535156 0-4.710937-3.820313-8.53125-8.53125-8.53125zm0 0"/></svg>