<?xml version="1.0" encoding="iso-8859-1"?>
<!-- Generator: Adobe Illustrator 19.0.0, SVG Export Plug-In . SVG Version: 6.00 Build 0)  -->
<svg xmlns="http://www.w3.org/2000/svg" xmlns:xlink="http://www.w3.org/1999/xlink" version="1.1" id="Capa_1" x="0px" y="0px" viewBox="0 0 512 512" style="enable-background:new 0 0 512 512;" xml:space="preserve" width="512" height="512">
<g>
	<path d="M267.3,479.04H65.56c-2.311,0-4.19-1.879-4.19-4.19v-52.436h8.486c14.039,0,25.461-11.422,25.461-25.461   c0-14.04-11.422-25.461-25.461-25.461H61.37v-49.032h8.486c14.039,0,25.461-11.422,25.461-25.461   c0-14.039-11.422-25.461-25.461-25.461H61.37v-49.033h8.486c14.039,0,25.461-11.422,25.461-25.461   c0-14.04-11.422-25.461-25.461-25.461H61.37v-49.033h8.486c14.039,0,25.461-11.422,25.461-25.461   c0-14.04-11.422-25.461-25.461-25.461H61.37V19.19c0-2.311,1.879-4.19,4.19-4.19h52.74c4.142,0,7.5-3.358,7.5-7.5   S122.442,0,118.3,0H65.56C54.979,0,46.37,8.608,46.37,19.19v52.437h-8.483c-14.04,0-25.461,11.422-25.461,25.461   c0,14.039,11.422,25.461,25.461,25.461h8.483v49.033h-8.483c-14.04,0-25.461,11.422-25.461,25.461   c0,14.039,11.422,25.461,25.461,25.461h8.483v49.033h-8.483c-14.04,0-25.461,11.422-25.461,25.461   c0,14.039,11.422,25.461,25.461,25.461h8.483v49.032h-8.483c-14.04,0-25.461,11.422-25.461,25.461   c0,14.039,11.422,25.461,25.461,25.461h8.483v52.436c0,10.582,8.608,19.19,19.19,19.19H267.3c4.142,0,7.5-3.358,7.5-7.5   S271.442,479.04,267.3,479.04z M27.426,97.088c0-5.769,4.693-10.461,10.461-10.461h15.925c0.02,0,0.038,0.003,0.058,0.003   s0.038-0.003,0.058-0.003h15.928c5.768,0,10.461,4.693,10.461,10.461c0,5.768-4.693,10.461-10.461,10.461H37.887   C32.119,107.549,27.426,102.856,27.426,97.088z M27.426,197.043c0-5.769,4.693-10.461,10.461-10.461h31.969   c5.768,0,10.461,4.693,10.461,10.461c0,5.768-4.693,10.461-10.461,10.461H53.957c-0.029,0-0.058-0.004-0.087-0.004   s-0.058,0.004-0.087,0.004H37.887C32.119,207.504,27.426,202.812,27.426,197.043z M27.426,296.998   c0-5.768,4.693-10.461,10.461-10.461h15.925c0.02,0,0.038,0.003,0.058,0.003s0.038-0.003,0.058-0.003h15.928   c5.768,0,10.461,4.693,10.461,10.461c0,5.768-4.693,10.461-10.461,10.461H37.887C32.119,307.459,27.426,302.767,27.426,296.998z    M27.426,396.953c0-5.769,4.693-10.461,10.461-10.461h31.969c5.768,0,10.461,4.693,10.461,10.461   c0,5.768-4.693,10.461-10.461,10.461H53.948c-0.026,0-0.051-0.004-0.077-0.004s-0.051,0.004-0.077,0.004H37.887   C32.119,407.414,27.426,402.721,27.426,396.953z"/>
	<path d="M148.295,15h202.564c20.029,0,36.325,16.295,36.325,36.325v133.679c0,4.142,3.358,7.5,7.5,7.5s7.5-3.358,7.5-7.5V51.325   C402.184,23.024,379.159,0,350.859,0H148.295c-4.142,0-7.5,3.358-7.5,7.5S144.153,15,148.295,15z"/>
	<path d="M476.084,447.256v-4.661c0-8.921-5.646-16.549-13.551-19.499l-2.458-59.614c-0.171-4.139-3.655-7.359-7.803-7.185   c-4.139,0.171-7.355,3.664-7.185,7.803l2.701,65.501c0.166,4.019,3.472,7.191,7.494,7.191c3.199,0,5.802,2.603,5.802,5.802v4.627   H328.282v-4.627c0-3.199,2.603-5.802,5.803-5.802c4.022,0,7.328-3.172,7.494-7.191l5.259-127.533h95.691l1.292,31.323   c0.171,4.138,3.659,7.355,7.803,7.185c4.139-0.17,7.355-3.664,7.185-7.803l-1.266-30.705h16.948c3.875,0,7.113-2.953,7.468-6.812   l7.575-82.241c0.193-2.1-0.506-4.184-1.927-5.742c-1.421-1.558-3.432-2.446-5.541-2.446h-32.193c-4.142,0-7.5,3.358-7.5,7.5v18.054   h-13.973l-2.248-18.938c-0.448-3.774-3.647-6.616-7.448-6.616h-48.04c-3.8,0-7,2.842-7.448,6.616l-2.248,18.938h-13.972v-18.054   c0-4.142-3.358-7.5-7.5-7.5h-32.193c-2.109,0-4.12,0.888-5.541,2.446c-1.421,1.558-2.121,3.642-1.927,5.742l7.575,82.241   c0.355,3.859,3.593,6.812,7.468,6.812h16.948l-4.991,121.027c-7.906,2.95-13.552,10.578-13.552,19.499v4.661   c-13.066,0.672-23.489,11.512-23.489,24.742V504.5c0,4.142,3.358,7.5,7.5,7.5h194.781c4.142,0,7.5-3.358,7.5-7.5v-32.502   C499.574,458.768,489.15,447.927,476.084,447.256z M315.525,219.828h16.471v18.054c0,4.142,3.358,7.5,7.5,7.5h28.135   c3.8,0,7-2.842,7.448-6.616l2.248-18.938h34.714l2.248,18.938c0.448,3.774,3.647,6.616,7.448,6.616h28.135   c4.142,0,7.5-3.358,7.5-7.5v-18.054h16.47l-6.193,67.241h-17.922H339.641h-17.923L315.525,219.828z M484.574,497H304.793v-25.002   c0-5.39,4.385-9.775,9.775-9.775h6.214h147.802h6.214c5.39,0,9.775,4.385,9.775,9.775V497z"/>
	<path d="M217.372,92.562c0-18.108-14.732-32.84-32.84-32.84c-18.108,0-32.84,14.732-32.84,32.84s14.732,32.84,32.84,32.84   C202.64,125.401,217.372,110.669,217.372,92.562z M166.691,92.562c0-9.837,8.003-17.84,17.84-17.84   c9.837,0,17.84,8.003,17.84,17.84s-8.003,17.84-17.84,17.84C174.694,110.401,166.691,102.398,166.691,92.562z"/>
	<path d="M187.046,226.088c-4.03,0.958-6.52,5.002-5.562,9.032c1.208,5.078,2.677,10.156,4.368,15.095   c1.066,3.114,3.978,5.073,7.095,5.073c0.805,0,1.625-0.131,2.43-0.406c3.919-1.342,6.008-5.606,4.667-9.525   c-1.535-4.484-2.87-9.096-3.966-13.707C195.12,227.619,191.075,225.13,187.046,226.088z"/>
	<path d="M184.532,181.222c-4.142,0-7.5,3.358-7.5,7.5v8.252c0,2.347,0.05,4.724,0.149,7.063c0.17,4.031,3.491,7.183,7.488,7.183   c0.107,0,0.215-0.002,0.323-0.007c4.138-0.175,7.351-3.672,7.176-7.811c-0.09-2.129-0.136-4.292-0.136-6.428v-8.252   C192.032,184.58,188.674,181.222,184.532,181.222z"/>
	<path d="M285.918,335.648c-4.399-1.759-8.769-3.755-12.986-5.933c-3.682-1.9-8.206-0.456-10.105,3.224   c-1.9,3.681-0.457,8.205,3.224,10.105c4.643,2.396,9.453,4.594,14.297,6.531c0.913,0.365,1.855,0.538,2.782,0.538   c2.977,0,5.793-1.784,6.966-4.717C291.635,341.551,289.764,337.187,285.918,335.648z"/>
	<path d="M219.523,283.323c-2.747-3.866-5.337-7.91-7.7-12.017c-2.066-3.59-6.649-4.826-10.241-2.761   c-3.59,2.066-4.826,6.651-2.761,10.241c2.601,4.52,5.451,8.968,8.473,13.223c1.463,2.059,3.774,3.157,6.121,3.157   c1.502,0,3.019-0.45,4.337-1.386C221.128,291.382,221.921,286.7,219.523,283.323z"/>
	<path d="M239.667,326.047c1.376,1.085,3.013,1.611,4.639,1.611c2.218,0,4.414-0.98,5.894-2.856   c2.565-3.252,2.007-7.968-1.245-10.533c-3.723-2.936-7.35-6.087-10.778-9.365c-2.995-2.863-7.742-2.757-10.604,0.238   c-2.863,2.994-2.756,7.741,0.238,10.604C231.583,319.352,235.572,322.818,239.667,326.047z"/>
	<path d="M224.3,192.801c2.769-3.081,2.515-7.823-0.565-10.592l-34.19-30.725c-0.041-0.037-0.085-0.068-0.127-0.104   c-0.087-0.075-0.177-0.148-0.268-0.219c-0.098-0.077-0.197-0.152-0.298-0.223c-0.091-0.064-0.184-0.126-0.278-0.187   c-0.107-0.068-0.214-0.134-0.324-0.197c-0.096-0.055-0.192-0.107-0.29-0.158c-0.113-0.058-0.226-0.112-0.341-0.164   c-0.101-0.046-0.202-0.09-0.304-0.131c-0.118-0.047-0.236-0.089-0.355-0.13c-0.104-0.036-0.208-0.071-0.315-0.102   c-0.126-0.037-0.253-0.068-0.381-0.098c-0.102-0.024-0.203-0.05-0.306-0.07c-0.15-0.029-0.3-0.049-0.451-0.069   c-0.084-0.011-0.167-0.026-0.251-0.034c-0.481-0.047-0.966-0.047-1.447,0c-0.083,0.008-0.163,0.022-0.245,0.033   c-0.153,0.02-0.306,0.041-0.458,0.07c-0.101,0.019-0.199,0.045-0.299,0.068c-0.13,0.031-0.26,0.062-0.389,0.1   c-0.104,0.03-0.205,0.065-0.307,0.1c-0.122,0.042-0.243,0.085-0.364,0.133c-0.1,0.04-0.199,0.083-0.297,0.127   c-0.118,0.053-0.234,0.109-0.349,0.168c-0.096,0.049-0.19,0.101-0.283,0.154c-0.112,0.064-0.221,0.131-0.33,0.201   c-0.092,0.059-0.183,0.12-0.273,0.183c-0.102,0.072-0.203,0.148-0.302,0.226c-0.09,0.071-0.179,0.143-0.266,0.217   c-0.042,0.036-0.086,0.067-0.128,0.104l-34.19,30.725c-3.081,2.769-3.334,7.511-0.565,10.592c1.481,1.648,3.527,2.487,5.581,2.487   c1.786,0,3.578-0.634,5.011-1.921l29.177-26.22l29.177,26.22C216.79,196.135,221.531,195.882,224.3,192.801z"/>
	<path d="M213.736,370.946c-2.929-2.929-7.678-2.929-10.606,0l-18.598,18.598l-18.598-18.598c-2.929-2.929-7.678-2.929-10.606,0   c-2.929,2.929-2.929,7.678,0,10.606l18.598,18.598l-18.598,18.598c-2.929,2.929-2.929,7.678,0,10.606   c1.464,1.464,3.384,2.197,5.303,2.197s3.839-0.732,5.303-2.197l18.598-18.598l18.598,18.598c1.464,1.464,3.384,2.197,5.303,2.197   s3.839-0.732,5.303-2.197c2.929-2.929,2.929-7.678,0-10.606l-18.598-18.598l18.598-18.598   C216.665,378.624,216.665,373.875,213.736,370.946z"/>
</g>















</svg>
